<?xml version="1.0" standalone="no"?>
<!DOCTYPE svg PUBLIC "-//W3C//DTD SVG 20010904//EN"
 "http://www.w3.org/TR/2001/REC-SVG-20010904/DTD/svg10.dtd">
<svg version="1.0" xmlns="http://www.w3.org/2000/svg"
 viewBox="0 0 2600.000000 2600.000000"
 preserveAspectRatio="xMidYMid meet">
<metadata>
Created by potrace 1.15, written by Peter Selinger 2001-2017
</metadata>
<g transform="translate(0.000000,2600.000000) scale(0.100000,-0.100000)"
fill="#000000" stroke="none">
<path d="M12870 23230 c-384 -30 -741 -102 -1106 -225 -398 -133 -703 -283
-1059 -520 -1188 -792 -1924 -2098 -1984 -3520 -33 -769 123 -1496 469 -2186
487 -973 1348 -1763 2354 -2158 556 -218 1056 -313 1656 -312 852 1 1650 235
2384 699 l119 75 -7 76 c-8 95 9 390 30 536 52 363 151 671 322 1010 154 303
351 574 592 815 237 238 511 437 809 589 l159 81 6 42 c37 270 43 752 12 1013
-43 366 -107 653 -223 988 -347 1011 -1066 1878 -2006 2418 -526 302 -1112
492 -1747 564 -161 19 -618 27 -780 15z"/>
<path d="M18780 17673 c-288 -29 -551 -91 -785 -185 -426 -171 -837 -509
-1104 -908 -187 -280 -314 -606 -378 -975 -25 -147 -25 -587 0 -740 103 -612
408 -1148 870 -1526 398 -326 862 -508 1400 -548 194 -15 504 14 715 65 962
235 1683 1008 1846 1979 42 246 43 482 6 745 -141 975 -855 1772 -1812 2020
-246 63 -556 94 -758 73z"/>
<path d="M8903 15374 c-107 -55 -217 -137 -298 -218 -119 -121 -393 -488 -635
-852 -676 -1015 -1118 -2039 -1275 -2949 -46 -271 -59 -423 -59 -715 -1 -279
8 -391 45 -608 138 -813 587 -1520 1264 -1992 440 -308 1025 -537 1695 -664
509 -97 958 -136 1574 -136 484 0 887 23 1481 85 127 13 282 29 345 35 136 13
349 66 452 111 362 159 625 495 693 888 22 122 19 312 -5 432 -50 246 -147
426 -325 605 -207 208 -454 325 -750 355 -112 11 -166 9 -380 -16 -1492 -176
-2605 -119 -3211 165 -276 129 -410 272 -458 485 -94 427 108 1168 539 1975
146 273 427 730 449 730 8 0 198 -133 373 -262 l52 -38 -103 -158 c-121 -185
-195 -308 -296 -491 -348 -636 -568 -1334 -509 -1611 13 -60 49 -92 164 -145
514 -236 1493 -287 2780 -145 256 29 230 18 250 108 124 572 340 1170 604
1677 302 580 690 1082 1134 1468 70 60 127 111 127 112 0 1 -60 -13 -132 -32
-751 -192 -1562 -215 -2333 -67 -209 40 -434 100 -670 179 -666 222 -1241 549
-1790 1021 -187 161 -435 408 -584 582 -62 72 -115 132 -117 132 -2 0 -43 -21
-91 -46z"/>
<path d="M16095 13495 c-235 -68 -493 -182 -690 -306 -743 -466 -1347 -1312
-1701 -2384 -86 -262 -172 -584 -160 -603 3 -5 34 -19 68 -32 90 -32 249 -113
343 -174 320 -209 569 -533 689 -896 114 -345 114 -730 1 -1077 -117 -355
-366 -685 -672 -888 -48 -32 -90 -60 -92 -62 -2 -1 15 -28 39 -60 69 -93 248
-264 341 -326 512 -340 1211 -310 2024 88 373 183 723 419 1081 730 l135 117
-85 52 c-133 79 -203 133 -307 236 -306 303 -462 692 -446 1115 10 279 89 513
242 717 225 299 560 471 996 510 l136 12 18 81 c76 355 289 709 564 937 155
128 312 224 476 289 44 17 81 33 83 34 5 5 -38 167 -76 283 l-36 112 -91 -6
c-101 -7 -370 10 -515 32 -901 138 -1673 620 -2195 1369 -48 69 -88 125 -88
124 -1 0 -38 -11 -82 -24z"/>
<path d="M19585 11169 c-255 -39 -468 -141 -645 -307 -178 -166 -285 -348
-345 -585 -19 -76 -27 -92 -49 -104 -49 -26 -177 -53 -299 -62 -307 -25 -545
-132 -757 -341 -176 -173 -270 -335 -330 -569 -137 -539 143 -1123 653 -1361
278 -129 568 -151 1007 -75 449 78 886 269 1238 542 463 360 780 908 868 1503
72 490 -166 970 -606 1222 -67 38 -156 74 -272 109 -91 27 -121 31 -253 34
-82 2 -177 0 -210 -6z"/>
<path d="M9596 6749 c-10 -116 -52 -441 -82 -634 -208 -1338 -637 -2553 -1280
-3627 -52 -86 -94 -161 -94 -167 0 -8 1341 -11 4890 -11 2690 0 4890 2 4890 5
0 3 -40 71 -89 152 -142 237 -213 370 -366 678 -319 645 -548 1270 -725 1985
-71 285 -148 656 -175 843 -4 26 -11 47 -15 47 -4 0 -43 -16 -86 -36 -359
-164 -772 -277 -1149 -315 -147 -14 -459 -6 -600 16 -486 76 -888 278 -1224
616 -138 139 -290 336 -396 514 -9 15 -29 14 -270 -14 -558 -65 -922 -90
-1435 -98 -569 -9 -1029 18 -1504 88 -116 17 -227 33 -247 36 l-36 5 -7 -83z"/>
</g>
</svg>
